<svg id="GoogleG_FullColor_rgb" xmlns="http://www.w3.org/2000/svg" viewBox="0 0 94 96"><defs><style>.cls-1{fill:#4285f4;}.cls-2{fill:#34a853;}.cls-3{fill:#fabb05;}.cls-4{fill:#e94235;}</style></defs><title>GoogleG_FullColor_rgb_96px</title><g id="_96px" data-name="96px"><path class="cls-1" d="M94,49.09A55.86,55.86,0,0,0,93.1,39H48V58H74a21.35,21.35,0,0,1-9.64,14.4v12H79.8C88.82,76,94,63.69,94,49.09Z"/><path class="cls-2" d="M48,96c13,0,23.86-4.26,31.79-11.61l-15.46-12A29,29,0,0,1,48,77c-12.52,0-23.15-8.44-26.95-19.81H5.12V69.55A48,48,0,0,0,48,96Z"/><path class="cls-3" d="M21.06,57.19a28.72,28.72,0,0,1,0-18.38V26.45H5.12a47.91,47.91,0,0,0,0,43.1Z"/><path class="cls-4" d="M48,19a26.09,26.09,0,0,1,18.42,7.2l13.7-13.69A46.12,46.12,0,0,0,48,0,48,48,0,0,0,5.12,26.45L21.06,38.81C24.86,27.44,35.49,19,48,19Z"/></g></svg>