<svg width="96" height="96" viewBox="0 0 96 96" fill="none" xmlns="http://www.w3.org/2000/svg">
<g clip-path="url(#clip0_86_10735)">
<g clip-path="url(#clip1_86_10735)">
<path d="M48 96C74.5097 96 96 74.5097 96 48C96 21.4903 74.5097 0 48 0C21.4903 0 0 21.4903 0 48C0 74.5097 21.4903 96 48 96Z" fill="#FF7A59"/>
<path fill-rule="evenodd" clip-rule="evenodd" d="M58.4807 58.5881C54.8967 58.5881 51.9895 55.7128 51.9895 52.1653C51.9895 48.6178 54.8957 45.7416 58.4807 45.7416C62.0657 45.7416 64.9739 48.6169 64.9739 52.1653C64.9739 55.7138 62.0676 58.5881 58.4807 58.5881ZM60.4251 39.7988V34.08C61.1854 33.7318 61.8305 33.1737 62.2844 32.4713C62.7383 31.769 62.9822 30.9516 62.9873 30.1153V29.9831C62.9873 27.5663 60.9886 25.59 58.5482 25.59H58.4142C55.9767 25.59 53.9751 27.5672 53.9751 29.9831V30.1153C53.9805 30.9515 54.2244 31.7688 54.6783 32.4711C55.1322 33.1735 55.7771 33.7316 56.5373 34.08V39.7988C54.3483 40.129 52.284 41.0273 50.5504 42.4041L34.6973 30.2006C34.8083 29.7992 34.8678 29.3852 34.8745 28.9688C34.8745 26.2303 32.6348 24.0075 29.8682 24C27.1017 23.9925 24.8573 26.2116 24.8545 28.951C24.8517 31.6903 27.0904 33.9085 29.857 33.9131C30.7235 33.9094 31.5742 33.6803 32.3254 33.2485L47.9236 45.2578C46.5203 47.348 45.7872 49.8161 45.8219 52.3334C45.8565 54.8507 46.6573 57.2977 48.1176 59.3485L43.372 64.0453C42.8105 63.8693 42.2176 63.8172 41.634 63.8924C41.0505 63.9676 40.4901 64.1685 39.9917 64.4811C39.4932 64.7937 39.0684 65.2107 38.7466 65.7033C38.4248 66.1959 38.2136 66.7524 38.1276 67.3345C38.0416 67.9166 38.0827 68.5104 38.2483 69.075C38.4139 69.6396 38.6999 70.1616 39.0866 70.6051C39.4733 71.0485 39.9516 71.4029 40.4885 71.6437C41.0253 71.8845 41.608 72.0061 42.1964 72C44.4689 72 46.312 70.1756 46.312 67.9266C46.308 67.5313 46.2448 67.1388 46.1245 66.7622L50.812 62.1197C53.0186 63.7922 55.7119 64.6967 58.4807 64.695C65.4754 64.695 71.1426 59.086 71.1426 52.1653C71.1426 45.901 66.4907 40.7278 60.4242 39.7988" fill="white"/>
</g>
</g>
<defs>
<clipPath id="clip0_86_10735">
<rect width="96" height="96" fill="white"/>
</clipPath>
<clipPath id="clip1_86_10735">
<rect width="96" height="96" fill="white"/>
</clipPath>
</defs>
</svg>
